<mxfile host="app.diagrams.net" agent="Mozilla/5.0 (Windows NT 10.0; Win64; x64) AppleWebKit/537.36 (KHTML, like Gecko) Chrome/127.0.0.0 Safari/537.36" version="24.7.5">
  <diagram name="Page-1" id="D3XBU6-8NYxVJnu6q4O4">
    <mxGraphModel dx="1221" dy="608" grid="0" gridSize="10" guides="1" tooltips="1" connect="1" arrows="1" fold="1" page="1" pageScale="1" pageWidth="2339" pageHeight="3300" math="0" shadow="0">
      <root>
        <mxCell id="0" />
        <mxCell id="1" parent="0" />
        <mxCell id="SdU4kvF4o9PnjevWUKKz-1" value="" style="shape=cube;whiteSpace=wrap;html=1;boundedLbl=1;backgroundOutline=1;darkOpacity=0.05;darkOpacity2=0.1;flipH=1;" vertex="1" parent="1">
          <mxGeometry x="70" y="120" width="190" height="130" as="geometry" />
        </mxCell>
        <mxCell id="SdU4kvF4o9PnjevWUKKz-2" value="&lt;b&gt;&lt;font style=&quot;font-size: 14px;&quot;&gt;Klijentska razina&lt;/font&gt;&lt;/b&gt;" style="text;html=1;align=center;verticalAlign=middle;resizable=0;points=[];autosize=1;strokeColor=none;fillColor=none;" vertex="1" parent="1">
          <mxGeometry x="70" y="150" width="130" height="30" as="geometry" />
        </mxCell>
        <mxCell id="SdU4kvF4o9PnjevWUKKz-3" value="Uređaj korisnika" style="rounded=0;whiteSpace=wrap;html=1;" vertex="1" parent="1">
          <mxGeometry x="115" y="180" width="100" height="50" as="geometry" />
        </mxCell>
        <mxCell id="SdU4kvF4o9PnjevWUKKz-4" value="" style="shape=cube;whiteSpace=wrap;html=1;boundedLbl=1;backgroundOutline=1;darkOpacity=0.05;darkOpacity2=0.1;flipH=1;" vertex="1" parent="1">
          <mxGeometry x="370" y="120" width="190" height="130" as="geometry" />
        </mxCell>
        <mxCell id="SdU4kvF4o9PnjevWUKKz-5" value="&lt;b&gt;&lt;font style=&quot;font-size: 14px;&quot;&gt;Web razina&lt;/font&gt;&lt;/b&gt;" style="text;html=1;align=center;verticalAlign=middle;resizable=0;points=[];autosize=1;strokeColor=none;fillColor=none;" vertex="1" parent="1">
          <mxGeometry x="370" y="150" width="100" height="30" as="geometry" />
        </mxCell>
        <mxCell id="SdU4kvF4o9PnjevWUKKz-6" value="Korisničko sučelje" style="rounded=0;whiteSpace=wrap;html=1;" vertex="1" parent="1">
          <mxGeometry x="415" y="180" width="100" height="50" as="geometry" />
        </mxCell>
        <mxCell id="SdU4kvF4o9PnjevWUKKz-7" value="" style="shape=cube;whiteSpace=wrap;html=1;boundedLbl=1;backgroundOutline=1;darkOpacity=0.05;darkOpacity2=0.1;flipH=1;" vertex="1" parent="1">
          <mxGeometry x="670" y="120" width="190" height="210" as="geometry" />
        </mxCell>
        <mxCell id="SdU4kvF4o9PnjevWUKKz-8" value="" style="line;strokeWidth=2;html=1;" vertex="1" parent="1">
          <mxGeometry x="260" y="180" width="110" height="10" as="geometry" />
        </mxCell>
        <mxCell id="SdU4kvF4o9PnjevWUKKz-9" value="" style="line;strokeWidth=2;html=1;" vertex="1" parent="1">
          <mxGeometry x="560" y="180" width="110" height="10" as="geometry" />
        </mxCell>
        <mxCell id="SdU4kvF4o9PnjevWUKKz-10" value="&lt;b&gt;&lt;font style=&quot;font-size: 14px;&quot;&gt;Aplikacijska razina&lt;/font&gt;&lt;/b&gt;" style="text;html=1;align=center;verticalAlign=middle;resizable=0;points=[];autosize=1;strokeColor=none;fillColor=none;" vertex="1" parent="1">
          <mxGeometry x="670" y="150" width="150" height="30" as="geometry" />
        </mxCell>
        <mxCell id="SdU4kvF4o9PnjevWUKKz-11" value="Poslovna logika" style="rounded=0;whiteSpace=wrap;html=1;" vertex="1" parent="1">
          <mxGeometry x="695" y="180" width="100" height="50" as="geometry" />
        </mxCell>
        <mxCell id="SdU4kvF4o9PnjevWUKKz-12" value="Pristup podacima" style="rounded=0;whiteSpace=wrap;html=1;" vertex="1" parent="1">
          <mxGeometry x="695" y="250" width="100" height="50" as="geometry" />
        </mxCell>
        <mxCell id="SdU4kvF4o9PnjevWUKKz-13" value="" style="line;strokeWidth=2;html=1;" vertex="1" parent="1">
          <mxGeometry x="860" y="180" width="110" height="10" as="geometry" />
        </mxCell>
        <mxCell id="SdU4kvF4o9PnjevWUKKz-14" value="" style="shape=cube;whiteSpace=wrap;html=1;boundedLbl=1;backgroundOutline=1;darkOpacity=0.05;darkOpacity2=0.1;flipH=1;" vertex="1" parent="1">
          <mxGeometry x="970" y="120" width="190" height="130" as="geometry" />
        </mxCell>
        <mxCell id="SdU4kvF4o9PnjevWUKKz-15" value="&lt;b&gt;&lt;font style=&quot;font-size: 14px;&quot;&gt;Podatkovna razina&lt;/font&gt;&lt;/b&gt;" style="text;html=1;align=center;verticalAlign=middle;resizable=0;points=[];autosize=1;strokeColor=none;fillColor=none;" vertex="1" parent="1">
          <mxGeometry x="970" y="150" width="150" height="30" as="geometry" />
        </mxCell>
        <mxCell id="SdU4kvF4o9PnjevWUKKz-16" value="SQL Baza podataka" style="rounded=0;whiteSpace=wrap;html=1;" vertex="1" parent="1">
          <mxGeometry x="995" y="180" width="100" height="50" as="geometry" />
        </mxCell>
      </root>
    </mxGraphModel>
  </diagram>
</mxfile>
